<svg xmlns="http://www.w3.org/2000/svg" width="1200" height="630" viewBox="0 0 1200 630" role="img" aria-label="Sai Sreeram Nanapu Agentic AI Engineer">
  <rect width="1200" height="630" fill="#030712"/>
  <path d="M0 0H1200V630H0Z" fill="url(#bg)"/>
  <g opacity="0.28">
    <path d="M80 120H1120M80 200H1120M80 280H1120M80 360H1120M80 440H1120M80 520H1120" stroke="#22d3ee" stroke-width="1"/>
    <path d="M160 70V560M280 70V560M400 70V560M520 70V560M640 70V560M760 70V560M880 70V560M1000 70V560" stroke="#8b5cf6" stroke-width="1"/>
  </g>
  <g opacity="0.8">
    <circle cx="210" cy="210" r="8" fill="#22d3ee"/>
    <circle cx="420" cy="155" r="7" fill="#60a5fa"/>
    <circle cx="610" cy="285" r="9" fill="#8b5cf6"/>
    <circle cx="810" cy="220" r="7" fill="#34d399"/>
    <circle cx="975" cy="340" r="8" fill="#c084fc"/>
    <path d="M210 210L420 155L610 285L810 220L975 340" stroke="url(#line)" stroke-width="3" fill="none"/>
  </g>
  <text x="80" y="255" fill="#ffffff" font-family="Inter, Arial, sans-serif" font-size="64" font-weight="700">Sai Sreeram Nanapu</text>
  <text x="80" y="325" fill="#c9f7ff" font-family="Inter, Arial, sans-serif" font-size="34" font-weight="600">Agentic AI Engineer | Generative AI | Full-Stack AI Developer</text>
  <text x="80" y="388" fill="#b8c7d9" font-family="Inter, Arial, sans-serif" font-size="24">Building intelligent systems with LLMs, machine learning, cloud backends, APIs, and automation workflows.</text>
  <rect x="80" y="445" width="226" height="54" rx="8" fill="#22d3ee"/>
  <text x="110" y="480" fill="#020617" font-family="Inter, Arial, sans-serif" font-size="21" font-weight="700">View Projects</text>
  <defs>
    <linearGradient id="bg" x1="0" x2="1200" y1="0" y2="630" gradientUnits="userSpaceOnUse">
      <stop stop-color="#061224"/>
      <stop offset="0.45" stop-color="#070b1d"/>
      <stop offset="1" stop-color="#151032"/>
    </linearGradient>
    <linearGradient id="line" x1="210" x2="975" y1="210" y2="340" gradientUnits="userSpaceOnUse">
      <stop stop-color="#22d3ee"/>
      <stop offset="0.5" stop-color="#8b5cf6"/>
      <stop offset="1" stop-color="#34d399"/>
    </linearGradient>
  </defs>
</svg>
